<?xml version="1.0" standalone="no"?>
<!DOCTYPE svg PUBLIC "-//W3C//DTD SVG 1.1//EN" "http://www.w3.org/Graphics/SVG/1.1/DTD/svg11.dtd">
<svg t="1533183111631" class="icon" style="" viewBox="0 0 1024 1024" version="1.1" xmlns="http://www.w3.org/2000/svg" p-id="1766" xmlns:xlink="http://www.w3.org/1999/xlink" width="64" height="64"><defs>
<style type="text/css"></style></defs>
<path d="M925.866667 669.866667 925.866667 669.866667l-298.666667 298.666667 0 0C620.8 977.066667 610.133333 981.333333 597.333333 981.333333L170.666667 981.333333c-46.933333 0-85.333333-38.4-85.333333-85.333333L85.333333 128c0-46.933333 38.4-85.333333 85.333333-85.333333l682.666667 0c46.933333 0 85.333333 38.4 85.333333 85.333333l0 512C938.666667 652.8 934.4 663.466667 925.866667 669.866667zM640 836.266667l153.6-153.6L661.333333 682.666667c-12.8 0-21.333333 8.533333-21.333333 21.333333L640 836.266667zM832 128 192 128C179.2 128 170.666667 136.533333 170.666667 149.333333l0 725.333333c0 12.8 8.533333 21.333333 21.333333 21.333333l362.666667 0L554.666667 682.666667c0-46.933333 38.4-85.333333 85.333333-85.333333l213.333333 0L853.333333 149.333333C853.333333 136.533333 844.8 128 832 128zM725.333333 469.333333 298.666667 469.333333c-23.466667 0-42.666667-19.2-42.666667-42.666667 0-23.466667 19.2-42.666667 42.666667-42.666667l426.666667 0c23.466667 0 42.666667 19.2 42.666667 42.666667C768 450.133333 748.8 469.333333 725.333333 469.333333zM725.333333 298.666667 298.666667 298.666667c-23.466667 0-42.666667-19.2-42.666667-42.666667s19.2-42.666667 42.666667-42.666667l426.666667 0c23.466667 0 42.666667 19.2 42.666667 42.666667S748.8 298.666667 725.333333 298.666667z" p-id="1767" fill=""></path></svg>""></path></svg>